<?xml version="1.0" encoding="UTF-8" standalone="no"?>
<!DOCTYPE svg PUBLIC "-//W3C//DTD SVG 1.1//EN"
 "http://www.w3.org/Graphics/SVG/1.1/DTD/svg11.dtd">
<!-- Generated by graphviz version 14.1.2 (20260124.0452)
 -->
<!-- Title: MyNet Pages: 1 -->
<svg width="950pt" height="326pt"
 viewBox="0.00 0.00 950.00 326.00" xmlns="http://www.w3.org/2000/svg" xmlns:xlink="http://www.w3.org/1999/xlink">
<g id="graph0" class="graph" transform="scale(1 1) rotate(0) translate(7.2 319.2)">
<title>MyNet</title>
<polygon fill="white" stroke="none" points="-7.2,7.2 -7.2,-319.2 942.8,-319.2 942.8,7.2 -7.2,7.2"/>
<g id="clust1" class="cluster">
<title>cluster_branches</title>
<path fill="#f8fafc" stroke="#94a3b8" d="M207.54,-8C207.54,-8 465.31,-8 465.31,-8 471.31,-8 477.31,-14 477.31,-20 477.31,-20 477.31,-292 477.31,-292 477.31,-298 471.31,-304 465.31,-304 465.31,-304 207.54,-304 207.54,-304 201.54,-304 195.54,-298 195.54,-292 195.54,-292 195.54,-20 195.54,-20 195.54,-14 201.54,-8 207.54,-8"/>
<text xml:space="preserve" text-anchor="middle" x="259.41" y="-290.5" font-family="Helvetica,sans-Serif" font-size="10.00">Parallel feature extractors</text>
</g>
<!-- in -->
<g id="node1" class="node">
<title>in</title>
<path fill="#e8f0fe" stroke="#4d4d4d" stroke-width="1.2" d="M46.02,-166.07C46.02,-166.07 12,-166.07 12,-166.07 6,-166.07 0,-160.07 0,-154.07 0,-154.07 0,-137.93 0,-137.93 0,-131.93 6,-125.93 12,-125.93 12,-125.93 46.02,-125.93 46.02,-125.93 52.02,-125.93 58.02,-131.93 58.02,-137.93 58.02,-137.93 58.02,-154.07 58.02,-154.07 58.02,-160.07 52.02,-166.07 46.02,-166.07"/>
<text xml:space="preserve" text-anchor="middle" x="29.01" y="-153.2" font-family="Helvetica,sans-Serif" font-size="9.00" fill="#1a1a1a">Input</text>
<text xml:space="preserve" text-anchor="middle" x="29.01" y="-142.7" font-family="Helvetica,sans-Serif" font-size="9.00" fill="#1a1a1a">(B, C, L)</text>
<text xml:space="preserve" text-anchor="middle" x="29.01" y="-132.2" font-family="Helvetica,sans-Serif" font-size="9.00" fill="#1a1a1a">(96, 41, 62)</text>
</g>
<!-- split -->
<g id="node2" class="node">
<title>split</title>
<path fill="#f3e8ff" stroke="#4d4d4d" stroke-width="1.2" d="M151.54,-181.82C151.54,-181.82 110.02,-181.82 110.02,-181.82 104.02,-181.82 98.02,-175.82 98.02,-169.82 98.02,-169.82 98.02,-122.18 98.02,-122.18 98.02,-116.18 104.02,-110.18 110.02,-110.18 110.02,-110.18 151.54,-110.18 151.54,-110.18 157.54,-110.18 163.54,-116.18 163.54,-122.18 163.54,-122.18 163.54,-169.82 163.54,-169.82 163.54,-175.82 157.54,-181.82 151.54,-181.82"/>
<text xml:space="preserve" text-anchor="middle" x="130.78" y="-168.95" font-family="Helvetica,sans-Serif" font-size="9.00" fill="#1a1a1a">Channel split</text>
<text xml:space="preserve" text-anchor="middle" x="130.78" y="-158.45" font-family="Helvetica,sans-Serif" font-size="9.00" fill="#1a1a1a">x1=[:1]</text>
<text xml:space="preserve" text-anchor="middle" x="130.78" y="-147.95" font-family="Helvetica,sans-Serif" font-size="9.00" fill="#1a1a1a">x2=[1:8]</text>
<text xml:space="preserve" text-anchor="middle" x="130.78" y="-137.45" font-family="Helvetica,sans-Serif" font-size="9.00" fill="#1a1a1a">x3=[8:14]</text>
<text xml:space="preserve" text-anchor="middle" x="130.78" y="-126.95" font-family="Helvetica,sans-Serif" font-size="9.00" fill="#1a1a1a">x4=[14:21]</text>
<text xml:space="preserve" text-anchor="middle" x="130.78" y="-116.45" font-family="Helvetica,sans-Serif" font-size="9.00" fill="#1a1a1a">x5=[21:]</text>
</g>
<!-- in&#45;&gt;split -->
<g id="edge1" class="edge">
<title>in&#45;&gt;split</title>
<path fill="none" stroke="#4d4d4d" stroke-width="1.1" d="M58.6,-146C67.95,-146 78.52,-146 88.6,-146"/>
<polygon fill="#4d4d4d" stroke="#4d4d4d" stroke-width="1.1" points="88.51,-148.63 96.01,-146 88.51,-143.38 88.51,-148.63"/>
</g>
<!-- b5 -->
<g id="node3" class="node">
<title>b5</title>
<path fill="#ecfdf3" stroke="#4d4d4d" stroke-width="1.2" d="M414.18,-52C414.18,-52 258.66,-52 258.66,-52 252.66,-52 246.66,-46 246.66,-40 246.66,-40 246.66,-28 246.66,-28 246.66,-22 252.66,-16 258.66,-16 258.66,-16 414.18,-16 414.18,-16 420.18,-16 426.18,-22 426.18,-28 426.18,-28 426.18,-40 426.18,-40 426.18,-46 420.18,-52 414.18,-52"/>
<text xml:space="preserve" text-anchor="middle" x="336.42" y="-35.95" font-family="Helvetica,sans-Serif" font-size="9.00" fill="#1a1a1a">x5 / l5</text>
<text xml:space="preserve" text-anchor="middle" x="336.42" y="-25.45" font-family="Helvetica,sans-Serif" font-size="9.00" fill="#1a1a1a">(Conv1d→ELU→Dropout) × 4 &#160;→ &#160;Flatten</text>
</g>
<!-- split&#45;&gt;b5 -->
<g id="edge2" class="edge">
<title>split&#45;&gt;b5</title>
<path fill="none" stroke="#4d4d4d" stroke-width="1.1" d="M150.88,-109.94C161.75,-92.85 176.92,-73.66 195.54,-62 208.26,-54.03 222.8,-48.27 237.58,-44.11"/>
<polygon fill="#4d4d4d" stroke="#4d4d4d" stroke-width="1.1" points="238.09,-46.69 244.69,-42.26 236.77,-41.61 238.09,-46.69"/>
</g>
<!-- b4 -->
<g id="node4" class="node">
<title>b4</title>
<path fill="#ecfdf3" stroke="#4d4d4d" stroke-width="1.2" d="M393.18,-108C393.18,-108 279.66,-108 279.66,-108 273.66,-108 267.66,-102 267.66,-96 267.66,-96 267.66,-84 267.66,-84 267.66,-78 273.66,-72 279.66,-72 279.66,-72 393.18,-72 393.18,-72 399.18,-72 405.18,-78 405.18,-84 405.18,-84 405.18,-96 405.18,-96 405.18,-102 399.18,-108 393.18,-108"/>
<text xml:space="preserve" text-anchor="middle" x="336.42" y="-91.95" font-family="Helvetica,sans-Serif" font-size="9.00" fill="#1a1a1a">x4 / l4</text>
<text xml:space="preserve" text-anchor="middle" x="336.42" y="-81.45" font-family="Helvetica,sans-Serif" font-size="9.00" fill="#1a1a1a">(Linear→ReLU) × 3 &#160;→ &#160;Flatten</text>
</g>
<!-- split&#45;&gt;b4 -->
<g id="edge3" class="edge">
<title>split&#45;&gt;b4</title>
<path fill="none" stroke="#4d4d4d" stroke-width="1.1" d="M164.02,-130.22C173.96,-125.81 185.05,-121.31 195.54,-118 215.59,-111.67 237.72,-106.46 258.35,-102.33"/>
<polygon fill="#4d4d4d" stroke="#4d4d4d" stroke-width="1.1" points="258.59,-104.95 265.45,-100.94 257.59,-99.8 258.59,-104.95"/>
</g>
<!-- b3 -->
<g id="node5" class="node">
<title>b3</title>
<path fill="#ecfdf3" stroke="#4d4d4d" stroke-width="1.2" d="M457.31,-164C457.31,-164 215.54,-164 215.54,-164 209.54,-164 203.54,-158 203.54,-152 203.54,-152 203.54,-140 203.54,-140 203.54,-134 209.54,-128 215.54,-128 215.54,-128 457.31,-128 457.31,-128 463.31,-128 469.31,-134 469.31,-140 469.31,-140 469.31,-152 469.31,-152 469.31,-158 463.31,-164 457.31,-164"/>
<text xml:space="preserve" text-anchor="middle" x="336.42" y="-147.95" font-family="Helvetica,sans-Serif" font-size="9.00" fill="#1a1a1a">x3 / l3</text>
<text xml:space="preserve" text-anchor="middle" x="336.42" y="-137.45" font-family="Helvetica,sans-Serif" font-size="9.00" fill="#1a1a1a">Conv1d &#160;→ &#160;ELU &#160;→ &#160;(Conv1d→ELU→Dropout) × 5 &#160;→ &#160;Flatten</text>
</g>
<!-- split&#45;&gt;b3 -->
<g id="edge4" class="edge">
<title>split&#45;&gt;b3</title>
<path fill="none" stroke="#4d4d4d" stroke-width="1.1" d="M164.05,-146C172.99,-146 183.29,-146 194.33,-146"/>
<polygon fill="#4d4d4d" stroke="#4d4d4d" stroke-width="1.1" points="194.16,-148.63 201.66,-146 194.16,-143.38 194.16,-148.63"/>
</g>
<!-- b2 -->
<g id="node6" class="node">
<title>b2</title>
<path fill="#ecfdf3" stroke="#4d4d4d" stroke-width="1.2" d="M387.18,-220C387.18,-220 285.66,-220 285.66,-220 279.66,-220 273.66,-214 273.66,-208 273.66,-208 273.66,-196 273.66,-196 273.66,-190 279.66,-184 285.66,-184 285.66,-184 387.18,-184 387.18,-184 393.18,-184 399.18,-190 399.18,-196 399.18,-196 399.18,-208 399.18,-208 399.18,-214 393.18,-220 387.18,-220"/>
<text xml:space="preserve" text-anchor="middle" x="336.42" y="-203.95" font-family="Helvetica,sans-Serif" font-size="9.00" fill="#1a1a1a">x2 / l2</text>
<text xml:space="preserve" text-anchor="middle" x="336.42" y="-193.45" font-family="Helvetica,sans-Serif" font-size="9.00" fill="#1a1a1a">Conv1d &#160;→ &#160;ELU &#160;→ &#160;Flatten</text>
</g>
<!-- split&#45;&gt;b2 -->
<g id="edge5" class="edge">
<title>split&#45;&gt;b2</title>
<path fill="none" stroke="#4d4d4d" stroke-width="1.1" d="M164.02,-161.78C173.96,-166.19 185.05,-170.69 195.54,-174 217.54,-180.94 242.05,-186.54 264.32,-190.85"/>
<polygon fill="#4d4d4d" stroke="#4d4d4d" stroke-width="1.1" points="263.57,-193.38 271.43,-192.19 264.55,-188.22 263.57,-193.38"/>
</g>
<!-- b1 -->
<g id="node7" class="node">
<title>b1</title>
<path fill="#ecfdf3" stroke="#4d4d4d" stroke-width="1.2" d="M418.68,-276C418.68,-276 254.16,-276 254.16,-276 248.16,-276 242.16,-270 242.16,-264 242.16,-264 242.16,-252 242.16,-252 242.16,-246 248.16,-240 254.16,-240 254.16,-240 418.68,-240 418.68,-240 424.68,-240 430.68,-246 430.68,-252 430.68,-252 430.68,-264 430.68,-264 430.68,-270 424.68,-276 418.68,-276"/>
<text xml:space="preserve" text-anchor="middle" x="336.42" y="-259.95" font-family="Helvetica,sans-Serif" font-size="9.00" fill="#1a1a1a">x1 / l1</text>
<text xml:space="preserve" text-anchor="middle" x="336.42" y="-249.45" font-family="Helvetica,sans-Serif" font-size="9.00" fill="#1a1a1a">(Conv1d→ELU) × 2 &#160;→ &#160;Dropout &#160;→ &#160;Flatten</text>
</g>
<!-- split&#45;&gt;b1 -->
<g id="edge6" class="edge">
<title>split&#45;&gt;b1</title>
<path fill="none" stroke="#4d4d4d" stroke-width="1.1" d="M150.88,-182.06C161.75,-199.15 176.92,-218.34 195.54,-230 206.99,-237.17 219.91,-242.56 233.16,-246.59"/>
<polygon fill="#4d4d4d" stroke="#4d4d4d" stroke-width="1.1" points="232.37,-249.1 240.3,-248.61 233.79,-244.05 232.37,-249.1"/>
</g>
<!-- cat -->
<g id="node8" class="node">
<title>cat</title>
<path fill="#fff7ed" stroke="#4d4d4d" stroke-width="1.2" d="M561.33,-164C561.33,-164 521.31,-164 521.31,-164 515.31,-164 509.31,-158 509.31,-152 509.31,-152 509.31,-140 509.31,-140 509.31,-134 515.31,-128 521.31,-128 521.31,-128 561.33,-128 561.33,-128 567.33,-128 573.33,-134 573.33,-140 573.33,-140 573.33,-152 573.33,-152 573.33,-158 567.33,-164 561.33,-164"/>
<text xml:space="preserve" text-anchor="middle" x="541.32" y="-147.95" font-family="Helvetica,sans-Serif" font-size="9.00" fill="#1a1a1a">Concatenate</text>
<text xml:space="preserve" text-anchor="middle" x="541.32" y="-137.45" font-family="Helvetica,sans-Serif" font-size="9.00" fill="#1a1a1a">(dim=1)</text>
</g>
<!-- b5&#45;&gt;cat -->
<g id="edge11" class="edge">
<title>b5&#45;&gt;cat</title>
<path fill="none" stroke="#4d4d4d" stroke-width="1.1" d="M426.59,-41.78C444.31,-46.03 462.12,-52.43 477.31,-62 499.34,-75.89 516.41,-100.43 527.19,-119.42"/>
<polygon fill="#4d4d4d" stroke="#4d4d4d" stroke-width="1.1" points="524.86,-120.64 530.76,-125.97 529.47,-118.13 524.86,-120.64"/>
</g>
<!-- b4&#45;&gt;cat -->
<g id="edge10" class="edge">
<title>b4&#45;&gt;cat</title>
<path fill="none" stroke="#4d4d4d" stroke-width="1.1" d="M405.78,-100.56C428.79,-104.94 454.42,-110.72 477.31,-118 485.02,-120.45 493.05,-123.56 500.69,-126.8"/>
<polygon fill="#4d4d4d" stroke="#4d4d4d" stroke-width="1.1" points="499.35,-129.08 507.27,-129.69 501.46,-124.28 499.35,-129.08"/>
</g>
<!-- b3&#45;&gt;cat -->
<g id="edge9" class="edge">
<title>b3&#45;&gt;cat</title>
<path fill="none" stroke="#4d4d4d" stroke-width="1.1" d="M469.64,-146C480.39,-146 490.63,-146 499.82,-146"/>
<polygon fill="#4d4d4d" stroke="#4d4d4d" stroke-width="1.1" points="499.81,-148.63 507.31,-146 499.81,-143.38 499.81,-148.63"/>
</g>
<!-- b2&#45;&gt;cat -->
<g id="edge8" class="edge">
<title>b2&#45;&gt;cat</title>
<path fill="none" stroke="#4d4d4d" stroke-width="1.1" d="M399.45,-192.62C424.01,-188.12 452.29,-181.96 477.31,-174 485.02,-171.55 493.05,-168.44 500.69,-165.2"/>
<polygon fill="#4d4d4d" stroke="#4d4d4d" stroke-width="1.1" points="501.46,-167.72 507.27,-162.31 499.35,-162.92 501.46,-167.72"/>
</g>
<!-- b1&#45;&gt;cat -->
<g id="edge7" class="edge">
<title>b1&#45;&gt;cat</title>
<path fill="none" stroke="#4d4d4d" stroke-width="1.1" d="M430.99,-249.12C447.24,-244.89 463.38,-238.78 477.31,-230 499.34,-216.11 516.41,-191.57 527.19,-172.58"/>
<polygon fill="#4d4d4d" stroke="#4d4d4d" stroke-width="1.1" points="529.47,-173.87 530.76,-166.03 524.86,-171.36 529.47,-173.87"/>
</g>
<!-- head -->
<g id="node9" class="node">
<title>head</title>
<path fill="#fee2e2" stroke="#4d4d4d" stroke-width="1.2" d="M829.6,-164C829.6,-164 625.33,-164 625.33,-164 619.33,-164 613.33,-158 613.33,-152 613.33,-152 613.33,-140 613.33,-140 613.33,-134 619.33,-128 625.33,-128 625.33,-128 829.6,-128 829.6,-128 835.6,-128 841.6,-134 841.6,-140 841.6,-140 841.6,-152 841.6,-152 841.6,-158 835.6,-164 829.6,-164"/>
<text xml:space="preserve" text-anchor="middle" x="727.46" y="-147.95" font-family="Helvetica,sans-Serif" font-size="9.00" fill="#1a1a1a">Prediction head / l6</text>
<text xml:space="preserve" text-anchor="middle" x="727.46" y="-137.45" font-family="Helvetica,sans-Serif" font-size="9.00" fill="#1a1a1a">(Linear→ELU) × 2 &#160;→ &#160;(Linear→ReLU) × 2 &#160;→ &#160;Linear</text>
</g>
<!-- cat&#45;&gt;head -->
<g id="edge12" class="edge">
<title>cat&#45;&gt;head</title>
<path fill="none" stroke="#4d4d4d" stroke-width="1.1" d="M573.56,-146C582.55,-146 592.93,-146 603.98,-146"/>
<polygon fill="#4d4d4d" stroke="#4d4d4d" stroke-width="1.1" points="603.8,-148.63 611.3,-146 603.8,-143.38 603.8,-148.63"/>
</g>
<!-- out -->
<g id="node10" class="node">
<title>out</title>
<path fill="#e5e7eb" stroke="#4d4d4d" stroke-width="1.2" d="M923.6,-164C923.6,-164 893.6,-164 893.6,-164 887.6,-164 881.6,-158 881.6,-152 881.6,-152 881.6,-140 881.6,-140 881.6,-134 887.6,-128 893.6,-128 893.6,-128 923.6,-128 923.6,-128 929.6,-128 935.6,-134 935.6,-140 935.6,-140 935.6,-152 935.6,-152 935.6,-158 929.6,-164 923.6,-164"/>
<text xml:space="preserve" text-anchor="middle" x="908.6" y="-147.95" font-family="Helvetica,sans-Serif" font-size="9.00" fill="#1a1a1a">Output</text>
<text xml:space="preserve" text-anchor="middle" x="908.6" y="-137.45" font-family="Helvetica,sans-Serif" font-size="9.00" fill="#1a1a1a">(B, 1)</text>
</g>
<!-- head&#45;&gt;out -->
<g id="edge13" class="edge">
<title>head&#45;&gt;out</title>
<path fill="none" stroke="#4d4d4d" stroke-width="1.1" d="M842.17,-146C852.85,-146 863.04,-146 872.07,-146"/>
<polygon fill="#4d4d4d" stroke="#4d4d4d" stroke-width="1.1" points="871.85,-148.63 879.35,-146 871.85,-143.38 871.85,-148.63"/>
</g>
</g>
</svg>
