<?xml version="1.0" encoding="UTF-8" standalone="no"?>
<!DOCTYPE svg PUBLIC "-//W3C//DTD SVG 1.1//EN"
 "http://www.w3.org/Graphics/SVG/1.1/DTD/svg11.dtd">
<!-- Generated by graphviz version 14.1.2 (20260124.0452)
 -->
<!-- Title: MyNet Pages: 1 -->
<svg width="1021pt" height="326pt"
 viewBox="0.00 0.00 1021.00 326.00" xmlns="http://www.w3.org/2000/svg" xmlns:xlink="http://www.w3.org/1999/xlink">
<g id="graph0" class="graph" transform="scale(1 1) rotate(0) translate(7.2 319.2)">
<title>MyNet</title>
<polygon fill="white" stroke="none" points="-7.2,7.2 -7.2,-319.2 1013.3,-319.2 1013.3,7.2 -7.2,7.2"/>
<g id="clust1" class="cluster">
<title>cluster_branches</title>
<path fill="#f8fafc" stroke="#94a3b8" d="M209.79,-8C209.79,-8 467.56,-8 467.56,-8 473.56,-8 479.56,-14 479.56,-20 479.56,-20 479.56,-292 479.56,-292 479.56,-298 473.56,-304 467.56,-304 467.56,-304 209.79,-304 209.79,-304 203.79,-304 197.79,-298 197.79,-292 197.79,-292 197.79,-20 197.79,-20 197.79,-14 203.79,-8 209.79,-8"/>
<text xml:space="preserve" text-anchor="middle" x="261.66" y="-290.5" font-family="Helvetica,sans-Serif" font-size="10.00">Parallel feature extractors</text>
</g>
<!-- in -->
<g id="node1" class="node">
<title>in</title>
<path fill="#e8f0fe" stroke="#4d4d4d" stroke-width="1.2" d="M48.27,-164C48.27,-164 12,-164 12,-164 6,-164 0,-158 0,-152 0,-152 0,-140 0,-140 0,-134 6,-128 12,-128 12,-128 48.27,-128 48.27,-128 54.27,-128 60.27,-134 60.27,-140 60.27,-140 60.27,-152 60.27,-152 60.27,-158 54.27,-164 48.27,-164"/>
<text xml:space="preserve" text-anchor="middle" x="30.13" y="-147.95" font-family="Helvetica,sans-Serif" font-size="9.00" fill="#1a1a1a">Input</text>
<text xml:space="preserve" text-anchor="middle" x="30.13" y="-137.45" font-family="Helvetica,sans-Serif" font-size="9.00" fill="#1a1a1a">(B, C, L=62)</text>
</g>
<!-- split -->
<g id="node2" class="node">
<title>split</title>
<path fill="#f3e8ff" stroke="#4d4d4d" stroke-width="1.2" d="M153.79,-181.82C153.79,-181.82 112.27,-181.82 112.27,-181.82 106.27,-181.82 100.27,-175.82 100.27,-169.82 100.27,-169.82 100.27,-122.18 100.27,-122.18 100.27,-116.18 106.27,-110.18 112.27,-110.18 112.27,-110.18 153.79,-110.18 153.79,-110.18 159.79,-110.18 165.79,-116.18 165.79,-122.18 165.79,-122.18 165.79,-169.82 165.79,-169.82 165.79,-175.82 159.79,-181.82 153.79,-181.82"/>
<text xml:space="preserve" text-anchor="middle" x="133.03" y="-168.95" font-family="Helvetica,sans-Serif" font-size="9.00" fill="#1a1a1a">Channel split</text>
<text xml:space="preserve" text-anchor="middle" x="133.03" y="-158.45" font-family="Helvetica,sans-Serif" font-size="9.00" fill="#1a1a1a">x1[:1]</text>
<text xml:space="preserve" text-anchor="middle" x="133.03" y="-147.95" font-family="Helvetica,sans-Serif" font-size="9.00" fill="#1a1a1a">x2[1:8]</text>
<text xml:space="preserve" text-anchor="middle" x="133.03" y="-137.45" font-family="Helvetica,sans-Serif" font-size="9.00" fill="#1a1a1a">x3[8:14]</text>
<text xml:space="preserve" text-anchor="middle" x="133.03" y="-126.95" font-family="Helvetica,sans-Serif" font-size="9.00" fill="#1a1a1a">x4[14:21]</text>
<text xml:space="preserve" text-anchor="middle" x="133.03" y="-116.45" font-family="Helvetica,sans-Serif" font-size="9.00" fill="#1a1a1a">x5[21:]</text>
</g>
<!-- in&#45;&gt;split -->
<g id="edge1" class="edge">
<title>in&#45;&gt;split</title>
<path fill="none" stroke="#4d4d4d" stroke-width="1.1" d="M60.86,-146C70.21,-146 80.7,-146 90.7,-146"/>
<polygon fill="#4d4d4d" stroke="#4d4d4d" stroke-width="1.1" points="90.53,-148.63 98.03,-146 90.53,-143.38 90.53,-148.63"/>
</g>
<!-- b1 -->
<g id="node3" class="node">
<title>b1</title>
<path fill="#ecfdf3" stroke="#4d4d4d" stroke-width="1.2" d="M458.06,-52C458.06,-52 219.29,-52 219.29,-52 213.29,-52 207.29,-46 207.29,-40 207.29,-40 207.29,-28 207.29,-28 207.29,-22 213.29,-16 219.29,-16 219.29,-16 458.06,-16 458.06,-16 464.06,-16 470.06,-22 470.06,-28 470.06,-28 470.06,-40 470.06,-40 470.06,-46 464.06,-52 458.06,-52"/>
<text xml:space="preserve" text-anchor="middle" x="338.67" y="-35.95" font-family="Helvetica,sans-Serif" font-size="9.00" fill="#1a1a1a">x1 / l1</text>
<text xml:space="preserve" text-anchor="middle" x="338.67" y="-25.45" font-family="Helvetica,sans-Serif" font-size="9.00" fill="#1a1a1a">Conv1d &#160;→ &#160;ELU &#160;→ &#160;Conv1d &#160;→ &#160;ELU &#160;→ &#160;Dropout &#160;→ &#160;Flatten</text>
</g>
<!-- split&#45;&gt;b1 -->
<g id="edge2" class="edge">
<title>split&#45;&gt;b1</title>
<path fill="none" stroke="#4d4d4d" stroke-width="1.1" d="M153.13,-109.94C164,-92.85 179.17,-73.66 197.79,-62 201.04,-59.97 204.4,-58.08 207.86,-56.32"/>
<polygon fill="#4d4d4d" stroke="#4d4d4d" stroke-width="1.1" points="208.9,-58.73 214.58,-53.17 206.67,-53.98 208.9,-58.73"/>
</g>
<!-- b2 -->
<g id="node4" class="node">
<title>b2</title>
<path fill="#ecfdf3" stroke="#4d4d4d" stroke-width="1.2" d="M389.43,-108C389.43,-108 287.91,-108 287.91,-108 281.91,-108 275.91,-102 275.91,-96 275.91,-96 275.91,-84 275.91,-84 275.91,-78 281.91,-72 287.91,-72 287.91,-72 389.43,-72 389.43,-72 395.43,-72 401.43,-78 401.43,-84 401.43,-84 401.43,-96 401.43,-96 401.43,-102 395.43,-108 389.43,-108"/>
<text xml:space="preserve" text-anchor="middle" x="338.67" y="-91.95" font-family="Helvetica,sans-Serif" font-size="9.00" fill="#1a1a1a">x2 / l2</text>
<text xml:space="preserve" text-anchor="middle" x="338.67" y="-81.45" font-family="Helvetica,sans-Serif" font-size="9.00" fill="#1a1a1a">Conv1d &#160;→ &#160;ELU &#160;→ &#160;Flatten</text>
</g>
<!-- split&#45;&gt;b2 -->
<g id="edge3" class="edge">
<title>split&#45;&gt;b2</title>
<path fill="none" stroke="#4d4d4d" stroke-width="1.1" d="M166.27,-130.22C176.21,-125.81 187.3,-121.31 197.79,-118 219.79,-111.06 244.3,-105.46 266.57,-101.15"/>
<polygon fill="#4d4d4d" stroke="#4d4d4d" stroke-width="1.1" points="266.8,-103.78 273.68,-99.81 265.82,-98.62 266.8,-103.78"/>
</g>
<!-- b3 -->
<g id="node5" class="node">
<title>b3</title>
<path fill="#ecfdf3" stroke="#4d4d4d" stroke-width="1.2" d="M459.56,-164C459.56,-164 217.79,-164 217.79,-164 211.79,-164 205.79,-158 205.79,-152 205.79,-152 205.79,-140 205.79,-140 205.79,-134 211.79,-128 217.79,-128 217.79,-128 459.56,-128 459.56,-128 465.56,-128 471.56,-134 471.56,-140 471.56,-140 471.56,-152 471.56,-152 471.56,-158 465.56,-164 459.56,-164"/>
<text xml:space="preserve" text-anchor="middle" x="338.67" y="-147.95" font-family="Helvetica,sans-Serif" font-size="9.00" fill="#1a1a1a">x3 / l3</text>
<text xml:space="preserve" text-anchor="middle" x="338.67" y="-137.45" font-family="Helvetica,sans-Serif" font-size="9.00" fill="#1a1a1a">Conv1d &#160;→ &#160;ELU &#160;→ &#160;(Conv1d→ELU→Dropout) × 5 &#160;→ &#160;Flatten</text>
</g>
<!-- split&#45;&gt;b3 -->
<g id="edge4" class="edge">
<title>split&#45;&gt;b3</title>
<path fill="none" stroke="#4d4d4d" stroke-width="1.1" d="M166.3,-146C175.24,-146 185.54,-146 196.58,-146"/>
<polygon fill="#4d4d4d" stroke="#4d4d4d" stroke-width="1.1" points="196.41,-148.63 203.91,-146 196.41,-143.38 196.41,-148.63"/>
</g>
<!-- b4 -->
<g id="node6" class="node">
<title>b4</title>
<path fill="#ecfdf3" stroke="#4d4d4d" stroke-width="1.2" d="M395.43,-220C395.43,-220 281.91,-220 281.91,-220 275.91,-220 269.91,-214 269.91,-208 269.91,-208 269.91,-196 269.91,-196 269.91,-190 275.91,-184 281.91,-184 281.91,-184 395.43,-184 395.43,-184 401.43,-184 407.43,-190 407.43,-196 407.43,-196 407.43,-208 407.43,-208 407.43,-214 401.43,-220 395.43,-220"/>
<text xml:space="preserve" text-anchor="middle" x="338.67" y="-203.95" font-family="Helvetica,sans-Serif" font-size="9.00" fill="#1a1a1a">x4 / l4</text>
<text xml:space="preserve" text-anchor="middle" x="338.67" y="-193.45" font-family="Helvetica,sans-Serif" font-size="9.00" fill="#1a1a1a">(Linear→ReLU) × 3 &#160;→ &#160;Flatten</text>
</g>
<!-- split&#45;&gt;b4 -->
<g id="edge5" class="edge">
<title>split&#45;&gt;b4</title>
<path fill="none" stroke="#4d4d4d" stroke-width="1.1" d="M166.27,-161.78C176.21,-166.19 187.3,-170.69 197.79,-174 217.84,-180.33 239.97,-185.54 260.6,-189.67"/>
<polygon fill="#4d4d4d" stroke="#4d4d4d" stroke-width="1.1" points="259.84,-192.2 267.7,-191.06 260.84,-187.05 259.84,-192.2"/>
</g>
<!-- b5 -->
<g id="node7" class="node">
<title>b5</title>
<path fill="#ecfdf3" stroke="#4d4d4d" stroke-width="1.2" d="M416.43,-276C416.43,-276 260.91,-276 260.91,-276 254.91,-276 248.91,-270 248.91,-264 248.91,-264 248.91,-252 248.91,-252 248.91,-246 254.91,-240 260.91,-240 260.91,-240 416.43,-240 416.43,-240 422.43,-240 428.43,-246 428.43,-252 428.43,-252 428.43,-264 428.43,-264 428.43,-270 422.43,-276 416.43,-276"/>
<text xml:space="preserve" text-anchor="middle" x="338.67" y="-259.95" font-family="Helvetica,sans-Serif" font-size="9.00" fill="#1a1a1a">x5 / l5</text>
<text xml:space="preserve" text-anchor="middle" x="338.67" y="-249.45" font-family="Helvetica,sans-Serif" font-size="9.00" fill="#1a1a1a">(Conv1d→ELU→Dropout) × 4 &#160;→ &#160;Flatten</text>
</g>
<!-- split&#45;&gt;b5 -->
<g id="edge6" class="edge">
<title>split&#45;&gt;b5</title>
<path fill="none" stroke="#4d4d4d" stroke-width="1.1" d="M153.13,-182.06C164,-199.15 179.17,-218.34 197.79,-230 210.51,-237.97 225.05,-243.73 239.83,-247.89"/>
<polygon fill="#4d4d4d" stroke="#4d4d4d" stroke-width="1.1" points="239.02,-250.39 246.94,-249.74 240.34,-245.31 239.02,-250.39"/>
</g>
<!-- cat -->
<g id="node8" class="node">
<title>cat</title>
<path fill="#fff7ed" stroke="#4d4d4d" stroke-width="1.2" d="M563.58,-164C563.58,-164 523.56,-164 523.56,-164 517.56,-164 511.56,-158 511.56,-152 511.56,-152 511.56,-140 511.56,-140 511.56,-134 517.56,-128 523.56,-128 523.56,-128 563.58,-128 563.58,-128 569.58,-128 575.58,-134 575.58,-140 575.58,-140 575.58,-152 575.58,-152 575.58,-158 569.58,-164 563.58,-164"/>
<text xml:space="preserve" text-anchor="middle" x="543.57" y="-147.95" font-family="Helvetica,sans-Serif" font-size="9.00" fill="#1a1a1a">Concatenate</text>
<text xml:space="preserve" text-anchor="middle" x="543.57" y="-137.45" font-family="Helvetica,sans-Serif" font-size="9.00" fill="#1a1a1a">(dim=1)</text>
</g>
<!-- b1&#45;&gt;cat -->
<g id="edge7" class="edge">
<title>b1&#45;&gt;cat</title>
<path fill="none" stroke="#4d4d4d" stroke-width="1.1" d="M461.64,-52.57C467.88,-55.31 473.9,-58.43 479.56,-62 501.59,-75.89 518.66,-100.43 529.44,-119.42"/>
<polygon fill="#4d4d4d" stroke="#4d4d4d" stroke-width="1.1" points="527.11,-120.64 533.01,-125.97 531.72,-118.13 527.11,-120.64"/>
</g>
<!-- b2&#45;&gt;cat -->
<g id="edge8" class="edge">
<title>b2&#45;&gt;cat</title>
<path fill="none" stroke="#4d4d4d" stroke-width="1.1" d="M401.7,-99.38C426.26,-103.88 454.54,-110.04 479.56,-118 487.27,-120.45 495.3,-123.56 502.94,-126.8"/>
<polygon fill="#4d4d4d" stroke="#4d4d4d" stroke-width="1.1" points="501.6,-129.08 509.52,-129.69 503.71,-124.28 501.6,-129.08"/>
</g>
<!-- b3&#45;&gt;cat -->
<g id="edge9" class="edge">
<title>b3&#45;&gt;cat</title>
<path fill="none" stroke="#4d4d4d" stroke-width="1.1" d="M471.89,-146C482.64,-146 492.88,-146 502.07,-146"/>
<polygon fill="#4d4d4d" stroke="#4d4d4d" stroke-width="1.1" points="502.06,-148.63 509.56,-146 502.06,-143.38 502.06,-148.63"/>
</g>
<!-- b4&#45;&gt;cat -->
<g id="edge10" class="edge">
<title>b4&#45;&gt;cat</title>
<path fill="none" stroke="#4d4d4d" stroke-width="1.1" d="M408.03,-191.44C431.04,-187.06 456.67,-181.28 479.56,-174 487.27,-171.55 495.3,-168.44 502.94,-165.2"/>
<polygon fill="#4d4d4d" stroke="#4d4d4d" stroke-width="1.1" points="503.71,-167.72 509.52,-162.31 501.6,-162.92 503.71,-167.72"/>
</g>
<!-- b5&#45;&gt;cat -->
<g id="edge11" class="edge">
<title>b5&#45;&gt;cat</title>
<path fill="none" stroke="#4d4d4d" stroke-width="1.1" d="M428.84,-250.22C446.56,-245.97 464.37,-239.57 479.56,-230 501.59,-216.11 518.66,-191.57 529.44,-172.58"/>
<polygon fill="#4d4d4d" stroke="#4d4d4d" stroke-width="1.1" points="531.72,-173.87 533.01,-166.03 527.11,-171.36 531.72,-173.87"/>
</g>
<!-- head -->
<g id="node9" class="node">
<title>head</title>
<path fill="#fee2e2" stroke="#4d4d4d" stroke-width="1.2" d="M900.1,-164C900.1,-164 627.58,-164 627.58,-164 621.58,-164 615.58,-158 615.58,-152 615.58,-152 615.58,-140 615.58,-140 615.58,-134 621.58,-128 627.58,-128 627.58,-128 900.1,-128 900.1,-128 906.1,-128 912.1,-134 912.1,-140 912.1,-140 912.1,-152 912.1,-152 912.1,-158 906.1,-164 900.1,-164"/>
<text xml:space="preserve" text-anchor="middle" x="763.84" y="-147.95" font-family="Helvetica,sans-Serif" font-size="9.00" fill="#1a1a1a">Prediction head / l6</text>
<text xml:space="preserve" text-anchor="middle" x="763.84" y="-137.45" font-family="Helvetica,sans-Serif" font-size="9.00" fill="#1a1a1a">Linear &#160;→ &#160;ELU &#160;→ &#160;Linear &#160;→ &#160;ELU &#160;→ &#160;(Linear→ReLU) × 2 &#160;→ &#160;Linear</text>
</g>
<!-- cat&#45;&gt;head -->
<g id="edge12" class="edge">
<title>cat&#45;&gt;head</title>
<path fill="none" stroke="#4d4d4d" stroke-width="1.1" d="M575.84,-146C584.68,-146 594.94,-146 606.01,-146"/>
<polygon fill="#4d4d4d" stroke="#4d4d4d" stroke-width="1.1" points="605.89,-148.63 613.39,-146 605.89,-143.38 605.89,-148.63"/>
</g>
<!-- out -->
<g id="node10" class="node">
<title>out</title>
<path fill="#e5e7eb" stroke="#4d4d4d" stroke-width="1.2" d="M994.1,-164C994.1,-164 964.1,-164 964.1,-164 958.1,-164 952.1,-158 952.1,-152 952.1,-152 952.1,-140 952.1,-140 952.1,-134 958.1,-128 964.1,-128 964.1,-128 994.1,-128 994.1,-128 1000.1,-128 1006.1,-134 1006.1,-140 1006.1,-140 1006.1,-152 1006.1,-152 1006.1,-158 1000.1,-164 994.1,-164"/>
<text xml:space="preserve" text-anchor="middle" x="979.1" y="-147.95" font-family="Helvetica,sans-Serif" font-size="9.00" fill="#1a1a1a">Output</text>
<text xml:space="preserve" text-anchor="middle" x="979.1" y="-137.45" font-family="Helvetica,sans-Serif" font-size="9.00" fill="#1a1a1a">(B, 1)</text>
</g>
<!-- head&#45;&gt;out -->
<g id="edge13" class="edge">
<title>head&#45;&gt;out</title>
<path fill="none" stroke="#4d4d4d" stroke-width="1.1" d="M912.67,-146C923.57,-146 933.8,-146 942.78,-146"/>
<polygon fill="#4d4d4d" stroke="#4d4d4d" stroke-width="1.1" points="942.5,-148.63 950,-146 942.5,-143.38 942.5,-148.63"/>
</g>
</g>
</svg>
