<?xml version="1.0" encoding="UTF-8" standalone="no"?>
<!DOCTYPE svg PUBLIC "-//W3C//DTD SVG 1.1//EN"
 "http://www.w3.org/Graphics/SVG/1.1/DTD/svg11.dtd">
<!-- Generated by graphviz version 14.1.2 (20260124.0452)
 -->
<!-- Title: MyNet Pages: 1 -->
<svg width="1026pt" height="326pt"
 viewBox="0.00 0.00 1026.00 326.00" xmlns="http://www.w3.org/2000/svg" xmlns:xlink="http://www.w3.org/1999/xlink">
<g id="graph0" class="graph" transform="scale(1 1) rotate(0) translate(7.2 319.2)">
<title>MyNet</title>
<polygon fill="white" stroke="none" points="-7.2,7.2 -7.2,-319.2 1018.55,-319.2 1018.55,7.2 -7.2,7.2"/>
<g id="clust1" class="cluster">
<title>cluster_branches</title>
<path fill="#f8fafc" stroke="#94a3b8" d="M215.04,-8C215.04,-8 472.81,-8 472.81,-8 478.81,-8 484.81,-14 484.81,-20 484.81,-20 484.81,-292 484.81,-292 484.81,-298 478.81,-304 472.81,-304 472.81,-304 215.04,-304 215.04,-304 209.04,-304 203.04,-298 203.04,-292 203.04,-292 203.04,-20 203.04,-20 203.04,-14 209.04,-8 215.04,-8"/>
<text xml:space="preserve" text-anchor="middle" x="266.91" y="-290.5" font-family="Helvetica,sans-Serif" font-size="10.00">Parallel feature extractors</text>
</g>
<!-- in -->
<g id="node1" class="node">
<title>in</title>
<path fill="#e8f0fe" stroke="#4d4d4d" stroke-width="1.2" d="M53.52,-164C53.52,-164 12,-164 12,-164 6,-164 0,-158 0,-152 0,-152 0,-140 0,-140 0,-134 6,-128 12,-128 12,-128 53.52,-128 53.52,-128 59.52,-128 65.52,-134 65.52,-140 65.52,-140 65.52,-152 65.52,-152 65.52,-158 59.52,-164 53.52,-164"/>
<text xml:space="preserve" text-anchor="middle" x="32.76" y="-147.95" font-family="Helvetica,sans-Serif" font-size="9.00" fill="#1a1a1a">Input</text>
<text xml:space="preserve" text-anchor="middle" x="32.76" y="-137.45" font-family="Helvetica,sans-Serif" font-size="9.00" fill="#1a1a1a">(B, C, L=128)</text>
</g>
<!-- split -->
<g id="node2" class="node">
<title>split</title>
<path fill="#f3e8ff" stroke="#4d4d4d" stroke-width="1.2" d="M159.04,-181.82C159.04,-181.82 117.52,-181.82 117.52,-181.82 111.52,-181.82 105.52,-175.82 105.52,-169.82 105.52,-169.82 105.52,-122.18 105.52,-122.18 105.52,-116.18 111.52,-110.18 117.52,-110.18 117.52,-110.18 159.04,-110.18 159.04,-110.18 165.04,-110.18 171.04,-116.18 171.04,-122.18 171.04,-122.18 171.04,-169.82 171.04,-169.82 171.04,-175.82 165.04,-181.82 159.04,-181.82"/>
<text xml:space="preserve" text-anchor="middle" x="138.28" y="-168.95" font-family="Helvetica,sans-Serif" font-size="9.00" fill="#1a1a1a">Channel split</text>
<text xml:space="preserve" text-anchor="middle" x="138.28" y="-158.45" font-family="Helvetica,sans-Serif" font-size="9.00" fill="#1a1a1a">x1[:1]</text>
<text xml:space="preserve" text-anchor="middle" x="138.28" y="-147.95" font-family="Helvetica,sans-Serif" font-size="9.00" fill="#1a1a1a">x2[1:8, :L/2]</text>
<text xml:space="preserve" text-anchor="middle" x="138.28" y="-137.45" font-family="Helvetica,sans-Serif" font-size="9.00" fill="#1a1a1a">x3[8:14]</text>
<text xml:space="preserve" text-anchor="middle" x="138.28" y="-126.95" font-family="Helvetica,sans-Serif" font-size="9.00" fill="#1a1a1a">x4[14:21]</text>
<text xml:space="preserve" text-anchor="middle" x="138.28" y="-116.45" font-family="Helvetica,sans-Serif" font-size="9.00" fill="#1a1a1a">x5[21:]</text>
</g>
<!-- in&#45;&gt;split -->
<g id="edge1" class="edge">
<title>in&#45;&gt;split</title>
<path fill="none" stroke="#4d4d4d" stroke-width="1.1" d="M65.95,-146C75.49,-146 86.07,-146 96.1,-146"/>
<polygon fill="#4d4d4d" stroke="#4d4d4d" stroke-width="1.1" points="95.95,-148.63 103.45,-146 95.95,-143.38 95.95,-148.63"/>
</g>
<!-- b1 -->
<g id="node3" class="node">
<title>b1</title>
<path fill="#ecfdf3" stroke="#4d4d4d" stroke-width="1.2" d="M463.31,-52C463.31,-52 224.54,-52 224.54,-52 218.54,-52 212.54,-46 212.54,-40 212.54,-40 212.54,-28 212.54,-28 212.54,-22 218.54,-16 224.54,-16 224.54,-16 463.31,-16 463.31,-16 469.31,-16 475.31,-22 475.31,-28 475.31,-28 475.31,-40 475.31,-40 475.31,-46 469.31,-52 463.31,-52"/>
<text xml:space="preserve" text-anchor="middle" x="343.92" y="-35.95" font-family="Helvetica,sans-Serif" font-size="9.00" fill="#1a1a1a">x1 / l1</text>
<text xml:space="preserve" text-anchor="middle" x="343.92" y="-25.45" font-family="Helvetica,sans-Serif" font-size="9.00" fill="#1a1a1a">Conv1d &#160;→ &#160;ELU &#160;→ &#160;Conv1d &#160;→ &#160;ELU &#160;→ &#160;Dropout &#160;→ &#160;Flatten</text>
</g>
<!-- split&#45;&gt;b1 -->
<g id="edge2" class="edge">
<title>split&#45;&gt;b1</title>
<path fill="none" stroke="#4d4d4d" stroke-width="1.1" d="M158.38,-109.94C169.25,-92.85 184.42,-73.66 203.04,-62 206.29,-59.97 209.65,-58.08 213.11,-56.32"/>
<polygon fill="#4d4d4d" stroke="#4d4d4d" stroke-width="1.1" points="214.15,-58.73 219.83,-53.17 211.92,-53.98 214.15,-58.73"/>
</g>
<!-- b2 -->
<g id="node4" class="node">
<title>b2</title>
<path fill="#ecfdf3" stroke="#4d4d4d" stroke-width="1.2" d="M394.68,-108C394.68,-108 293.16,-108 293.16,-108 287.16,-108 281.16,-102 281.16,-96 281.16,-96 281.16,-84 281.16,-84 281.16,-78 287.16,-72 293.16,-72 293.16,-72 394.68,-72 394.68,-72 400.68,-72 406.68,-78 406.68,-84 406.68,-84 406.68,-96 406.68,-96 406.68,-102 400.68,-108 394.68,-108"/>
<text xml:space="preserve" text-anchor="middle" x="343.92" y="-91.95" font-family="Helvetica,sans-Serif" font-size="9.00" fill="#1a1a1a">x2 / l2</text>
<text xml:space="preserve" text-anchor="middle" x="343.92" y="-81.45" font-family="Helvetica,sans-Serif" font-size="9.00" fill="#1a1a1a">Conv1d &#160;→ &#160;ELU &#160;→ &#160;Flatten</text>
</g>
<!-- split&#45;&gt;b2 -->
<g id="edge3" class="edge">
<title>split&#45;&gt;b2</title>
<path fill="none" stroke="#4d4d4d" stroke-width="1.1" d="M171.52,-130.22C181.46,-125.81 192.55,-121.31 203.04,-118 225.04,-111.06 249.55,-105.46 271.82,-101.15"/>
<polygon fill="#4d4d4d" stroke="#4d4d4d" stroke-width="1.1" points="272.05,-103.78 278.93,-99.81 271.07,-98.62 272.05,-103.78"/>
</g>
<!-- b3 -->
<g id="node5" class="node">
<title>b3</title>
<path fill="#ecfdf3" stroke="#4d4d4d" stroke-width="1.2" d="M464.81,-164C464.81,-164 223.04,-164 223.04,-164 217.04,-164 211.04,-158 211.04,-152 211.04,-152 211.04,-140 211.04,-140 211.04,-134 217.04,-128 223.04,-128 223.04,-128 464.81,-128 464.81,-128 470.81,-128 476.81,-134 476.81,-140 476.81,-140 476.81,-152 476.81,-152 476.81,-158 470.81,-164 464.81,-164"/>
<text xml:space="preserve" text-anchor="middle" x="343.92" y="-147.95" font-family="Helvetica,sans-Serif" font-size="9.00" fill="#1a1a1a">x3 / l3</text>
<text xml:space="preserve" text-anchor="middle" x="343.92" y="-137.45" font-family="Helvetica,sans-Serif" font-size="9.00" fill="#1a1a1a">Conv1d &#160;→ &#160;ELU &#160;→ &#160;(Conv1d→ELU→Dropout) × 5 &#160;→ &#160;Flatten</text>
</g>
<!-- split&#45;&gt;b3 -->
<g id="edge4" class="edge">
<title>split&#45;&gt;b3</title>
<path fill="none" stroke="#4d4d4d" stroke-width="1.1" d="M171.55,-146C180.49,-146 190.79,-146 201.83,-146"/>
<polygon fill="#4d4d4d" stroke="#4d4d4d" stroke-width="1.1" points="201.66,-148.63 209.16,-146 201.66,-143.38 201.66,-148.63"/>
</g>
<!-- b4 -->
<g id="node6" class="node">
<title>b4</title>
<path fill="#ecfdf3" stroke="#4d4d4d" stroke-width="1.2" d="M400.68,-220C400.68,-220 287.16,-220 287.16,-220 281.16,-220 275.16,-214 275.16,-208 275.16,-208 275.16,-196 275.16,-196 275.16,-190 281.16,-184 287.16,-184 287.16,-184 400.68,-184 400.68,-184 406.68,-184 412.68,-190 412.68,-196 412.68,-196 412.68,-208 412.68,-208 412.68,-214 406.68,-220 400.68,-220"/>
<text xml:space="preserve" text-anchor="middle" x="343.92" y="-203.95" font-family="Helvetica,sans-Serif" font-size="9.00" fill="#1a1a1a">x4 / l4</text>
<text xml:space="preserve" text-anchor="middle" x="343.92" y="-193.45" font-family="Helvetica,sans-Serif" font-size="9.00" fill="#1a1a1a">(Linear→ReLU) × 3 &#160;→ &#160;Flatten</text>
</g>
<!-- split&#45;&gt;b4 -->
<g id="edge5" class="edge">
<title>split&#45;&gt;b4</title>
<path fill="none" stroke="#4d4d4d" stroke-width="1.1" d="M171.52,-161.78C181.46,-166.19 192.55,-170.69 203.04,-174 223.09,-180.33 245.22,-185.54 265.85,-189.67"/>
<polygon fill="#4d4d4d" stroke="#4d4d4d" stroke-width="1.1" points="265.09,-192.2 272.95,-191.06 266.09,-187.05 265.09,-192.2"/>
</g>
<!-- b5 -->
<g id="node7" class="node">
<title>b5</title>
<path fill="#ecfdf3" stroke="#4d4d4d" stroke-width="1.2" d="M421.68,-276C421.68,-276 266.16,-276 266.16,-276 260.16,-276 254.16,-270 254.16,-264 254.16,-264 254.16,-252 254.16,-252 254.16,-246 260.16,-240 266.16,-240 266.16,-240 421.68,-240 421.68,-240 427.68,-240 433.68,-246 433.68,-252 433.68,-252 433.68,-264 433.68,-264 433.68,-270 427.68,-276 421.68,-276"/>
<text xml:space="preserve" text-anchor="middle" x="343.92" y="-259.95" font-family="Helvetica,sans-Serif" font-size="9.00" fill="#1a1a1a">x5 / l5</text>
<text xml:space="preserve" text-anchor="middle" x="343.92" y="-249.45" font-family="Helvetica,sans-Serif" font-size="9.00" fill="#1a1a1a">(Conv1d→ELU→Dropout) × 4 &#160;→ &#160;Flatten</text>
</g>
<!-- split&#45;&gt;b5 -->
<g id="edge6" class="edge">
<title>split&#45;&gt;b5</title>
<path fill="none" stroke="#4d4d4d" stroke-width="1.1" d="M158.38,-182.06C169.25,-199.15 184.42,-218.34 203.04,-230 215.76,-237.97 230.3,-243.73 245.08,-247.89"/>
<polygon fill="#4d4d4d" stroke="#4d4d4d" stroke-width="1.1" points="244.27,-250.39 252.19,-249.74 245.59,-245.31 244.27,-250.39"/>
</g>
<!-- cat -->
<g id="node8" class="node">
<title>cat</title>
<path fill="#fff7ed" stroke="#4d4d4d" stroke-width="1.2" d="M568.83,-164C568.83,-164 528.81,-164 528.81,-164 522.81,-164 516.81,-158 516.81,-152 516.81,-152 516.81,-140 516.81,-140 516.81,-134 522.81,-128 528.81,-128 528.81,-128 568.83,-128 568.83,-128 574.83,-128 580.83,-134 580.83,-140 580.83,-140 580.83,-152 580.83,-152 580.83,-158 574.83,-164 568.83,-164"/>
<text xml:space="preserve" text-anchor="middle" x="548.82" y="-147.95" font-family="Helvetica,sans-Serif" font-size="9.00" fill="#1a1a1a">Concatenate</text>
<text xml:space="preserve" text-anchor="middle" x="548.82" y="-137.45" font-family="Helvetica,sans-Serif" font-size="9.00" fill="#1a1a1a">(dim=1)</text>
</g>
<!-- b1&#45;&gt;cat -->
<g id="edge7" class="edge">
<title>b1&#45;&gt;cat</title>
<path fill="none" stroke="#4d4d4d" stroke-width="1.1" d="M466.89,-52.57C473.13,-55.31 479.15,-58.43 484.81,-62 506.84,-75.89 523.91,-100.43 534.69,-119.42"/>
<polygon fill="#4d4d4d" stroke="#4d4d4d" stroke-width="1.1" points="532.36,-120.64 538.26,-125.97 536.97,-118.13 532.36,-120.64"/>
</g>
<!-- b2&#45;&gt;cat -->
<g id="edge8" class="edge">
<title>b2&#45;&gt;cat</title>
<path fill="none" stroke="#4d4d4d" stroke-width="1.1" d="M406.95,-99.38C431.51,-103.88 459.79,-110.04 484.81,-118 492.52,-120.45 500.55,-123.56 508.19,-126.8"/>
<polygon fill="#4d4d4d" stroke="#4d4d4d" stroke-width="1.1" points="506.85,-129.08 514.77,-129.69 508.96,-124.28 506.85,-129.08"/>
</g>
<!-- b3&#45;&gt;cat -->
<g id="edge9" class="edge">
<title>b3&#45;&gt;cat</title>
<path fill="none" stroke="#4d4d4d" stroke-width="1.1" d="M477.14,-146C487.89,-146 498.13,-146 507.32,-146"/>
<polygon fill="#4d4d4d" stroke="#4d4d4d" stroke-width="1.1" points="507.31,-148.63 514.81,-146 507.31,-143.38 507.31,-148.63"/>
</g>
<!-- b4&#45;&gt;cat -->
<g id="edge10" class="edge">
<title>b4&#45;&gt;cat</title>
<path fill="none" stroke="#4d4d4d" stroke-width="1.1" d="M413.28,-191.44C436.29,-187.06 461.92,-181.28 484.81,-174 492.52,-171.55 500.55,-168.44 508.19,-165.2"/>
<polygon fill="#4d4d4d" stroke="#4d4d4d" stroke-width="1.1" points="508.96,-167.72 514.77,-162.31 506.85,-162.92 508.96,-167.72"/>
</g>
<!-- b5&#45;&gt;cat -->
<g id="edge11" class="edge">
<title>b5&#45;&gt;cat</title>
<path fill="none" stroke="#4d4d4d" stroke-width="1.1" d="M434.09,-250.22C451.81,-245.97 469.62,-239.57 484.81,-230 506.84,-216.11 523.91,-191.57 534.69,-172.58"/>
<polygon fill="#4d4d4d" stroke="#4d4d4d" stroke-width="1.1" points="536.97,-173.87 538.26,-166.03 532.36,-171.36 536.97,-173.87"/>
</g>
<!-- head -->
<g id="node9" class="node">
<title>head</title>
<path fill="#fee2e2" stroke="#4d4d4d" stroke-width="1.2" d="M905.35,-164C905.35,-164 632.83,-164 632.83,-164 626.83,-164 620.83,-158 620.83,-152 620.83,-152 620.83,-140 620.83,-140 620.83,-134 626.83,-128 632.83,-128 632.83,-128 905.35,-128 905.35,-128 911.35,-128 917.35,-134 917.35,-140 917.35,-140 917.35,-152 917.35,-152 917.35,-158 911.35,-164 905.35,-164"/>
<text xml:space="preserve" text-anchor="middle" x="769.09" y="-147.95" font-family="Helvetica,sans-Serif" font-size="9.00" fill="#1a1a1a">Prediction head / l6</text>
<text xml:space="preserve" text-anchor="middle" x="769.09" y="-137.45" font-family="Helvetica,sans-Serif" font-size="9.00" fill="#1a1a1a">Linear &#160;→ &#160;ELU &#160;→ &#160;Linear &#160;→ &#160;ELU &#160;→ &#160;(Linear→ReLU) × 2 &#160;→ &#160;Linear</text>
</g>
<!-- cat&#45;&gt;head -->
<g id="edge12" class="edge">
<title>cat&#45;&gt;head</title>
<path fill="none" stroke="#4d4d4d" stroke-width="1.1" d="M581.09,-146C589.93,-146 600.19,-146 611.26,-146"/>
<polygon fill="#4d4d4d" stroke="#4d4d4d" stroke-width="1.1" points="611.14,-148.63 618.64,-146 611.14,-143.38 611.14,-148.63"/>
</g>
<!-- out -->
<g id="node10" class="node">
<title>out</title>
<path fill="#e5e7eb" stroke="#4d4d4d" stroke-width="1.2" d="M999.35,-164C999.35,-164 969.35,-164 969.35,-164 963.35,-164 957.35,-158 957.35,-152 957.35,-152 957.35,-140 957.35,-140 957.35,-134 963.35,-128 969.35,-128 969.35,-128 999.35,-128 999.35,-128 1005.35,-128 1011.35,-134 1011.35,-140 1011.35,-140 1011.35,-152 1011.35,-152 1011.35,-158 1005.35,-164 999.35,-164"/>
<text xml:space="preserve" text-anchor="middle" x="984.35" y="-147.95" font-family="Helvetica,sans-Serif" font-size="9.00" fill="#1a1a1a">Output</text>
<text xml:space="preserve" text-anchor="middle" x="984.35" y="-137.45" font-family="Helvetica,sans-Serif" font-size="9.00" fill="#1a1a1a">(B, 1)</text>
</g>
<!-- head&#45;&gt;out -->
<g id="edge13" class="edge">
<title>head&#45;&gt;out</title>
<path fill="none" stroke="#4d4d4d" stroke-width="1.1" d="M917.92,-146C928.82,-146 939.05,-146 948.03,-146"/>
<polygon fill="#4d4d4d" stroke="#4d4d4d" stroke-width="1.1" points="947.75,-148.63 955.25,-146 947.75,-143.38 947.75,-148.63"/>
</g>
</g>
</svg>
